# xmcd CD database file
#
# Track frame offsets:
#	150
#	19953
#	35445
#	55875
#	69673
#	82129
#	100988
#	125526
#	146951
#	167016
#	168559
#	184823
#	199558
#
# Disc length: 3057 seconds
#
# Revision: 0
# Processed by: cddbd v1.5.2PL0 Copyright (c) Steve Scherf et al.
# Submitted via: CDex 1.70beta2
#
DISCID=bf0bef0d
DTITLE=Simons Lorence - Leine Los
DYEAR=2008
DGENRE=Jazz
TTITLE0=Jetzt hör mal auf zu träumen
TTITLE1=In Euphoria
TTITLE2=Du knickst das
TTITLE3=Hangman
TTITLE4=Unglück/Unglück/Schmerz
TTITLE5=Der Kleine hier
TTITLE6=Zehnter Zwölfter 97
TTITLE7=Gestern nachts allein
TTITLE8=All das die da oben
TTITLE9=Trail Track
TTITLE10=Sag Hallo
TTITLE11=Da du ja da bist
TTITLE12=Ein Blick in die Sterne
EXTD=YEAR: 2008
EXTT0=
EXTT1=
EXTT2=
EXTT3=
EXTT4=
EXTT5=
EXTT6=
EXTT7=
EXTT8=
EXTT9=
EXTT10=
EXTT11=
EXTT12=
PLAYORDER=
